<?xml version="1.0" encoding="UTF-8"?>
<svg id="Layer_1" xmlns="http://www.w3.org/2000/svg" version="1.1" viewBox="0 0 1626 1420">
  <!-- Generator: Adobe Illustrator 29.6.1, SVG Export Plug-In . SVG Version: 2.1.1 Build 9)  -->
  <defs>
    <style>
      .st0 {
        fill: #9e8844;
      }

      .st1 {
        fill: #9e8845;
      }

      .st2 {
        fill: #9e8945;
      }
    </style>
  </defs>
  <path class="st0" d="M1014,856c.77.08,1.54.16,2.33.24,16.23,1.67,32.44,3.04,48.73,3.88.72.04,1.44.08,2.18.12,24.45,1.28,48.87,1.9,73.35,1.74,3.94-.02,7.87-.03,11.81-.03.68,0,1.35,0,2.05,0,2.76,0,5.51,0,8.27,0,7.73,0,15.45-.02,23.18-.08,6.23-.05,12.46-.07,18.69-.04,3.27.01,6.54,0,9.81-.04q21.28-.27,26.12,3.38c2.31,2.52,3.88,4.83,5.48,7.83.99,1.31,2.01,2.61,3.06,3.88.46.56.93,1.12,1.4,1.7,1.78,1.65,3.36,2.22,5.63,3.05q3.64,1.77,4.71,4.21c.39,2.45.51,4.81.57,7.29.05.94.11,1.89.16,2.86.12,2.14.22,4.27.31,6.41.17,3.94.39,7.87.63,11.81.09,1.44.17,2.88.26,4.32.04.72.09,1.45.13,2.19.13,2.23.26,4.45.38,6.68.5,8.93,1.16,17.82,2,26.72.95,10.37,1.49,20.77,2.05,31.16q.42,8.12,1.2,16.21c.75,6.1.98,12.25,1.32,18.39.58,10.55,1.19,21.09,2.18,31.61,1.06,11.25,1.69,22.51,2.3,33.79q.45,8.42,1.25,16.81c.4,3.53.55,6.91.51,10.46,0,1.03-.02,2.07-.03,3.13q-.02,1.14-.04,2.31c-2.15.03-4.29.05-6.44.06-1.19.01-2.39.02-3.62.04-3.45-.09-6.78-.41-10.2-.82-5.53-.56-11.08-.79-16.63-1.09-11.43-.62-22.83-1.36-34.23-2.43-10.37-.95-20.77-1.49-31.17-2.06-6.11-.34-12.19-.71-18.27-1.45-5.43-.55-10.89-.77-16.33-1.06-11.78-.64-23.52-1.41-35.27-2.51-5.72-.52-11.41-.88-17.15-1.12-3.56-.17-7.13-.36-10.69-.56-.65-.04-1.31-.07-1.98-.11-4.58-.26-9.16-.57-13.74-.91-1.55-.11-3.11-.21-4.67-.3-2.2-.13-4.39-.3-6.59-.47q-1.92-.13-3.88-.27-3.14-.94-4.93-3.84-.6-1.53-1.21-3.1-2.44-2.84-5.25-5.5c-.91-.9-1.83-1.79-2.77-2.72-1.54-1.5-3-2.79-4.78-3.99-2.86-2.02-4.87-3.6-5.85-7.04-.24-2.79-.26-5.51-.21-8.31,0-1.06-.02-2.11-.02-3.2-.02-3.51.01-7.01.05-10.52,0-2.49-.01-4.97-.02-7.46-.02-5.92,0-11.83.02-17.75.05-11,.03-22,.01-33.01,0-2.57,0-5.14,0-7.71-.02-18.67-.35-37.32-1.04-55.98q-.06-1.61-.12-3.26c-.79-21.57-2.59-43.05-4.67-64.54-.28-3.02-.41-5.99-.34-9.03Z"/>
  <path class="st0" d="M1276,239c.28,9.14-.29,18.02-1.15,27.11-.99,10.71-1.57,21.44-2.16,32.18-.34,6.11-.71,12.19-1.45,18.28-.55,5.43-.77,10.89-1.06,16.33-.64,11.77-1.41,23.51-2.5,35.25-.54,5.95-.92,11.89-1.18,17.86-.3,6.9-.8,13.75-1.44,20.62-.85,9.1-1.43,18.2-1.94,27.33-.25,4.36-.51,8.73-.78,13.09-.25,4.13-.45,8.26-.64,12.4-.11,1.79-.22,3.58-.34,5.37-.02.78-.04,1.56-.06,2.37q-.16,2.15-1.31,5.82c-2.46,2.1-5.15,3.5-8,5q-2.03,1.65-3.56,3.31c-.56.59-1.12,1.17-1.7,1.78-2.49,2.74-4.94,5.5-7.36,8.31-.77.89-1.55,1.77-2.38,2.6-1.45.1-2.91.14-4.36.14-.94,0-1.89.01-2.86.02-1.04,0-2.09,0-3.17,0-1.1,0-2.19.01-3.32.02-2.4.01-4.79.03-7.19.04-3.84.02-7.69.04-11.53.06-10.27.07-20.53.12-30.8.17-43.47.21-86.9.59-130.21,4.66-3.03.28-6.05.55-9.08.82-1.82.16-3.64.33-5.47.5-5.03.46-9.97.63-15.02.56.31-4.54.62-9.08.94-13.62.09-1.29.17-2.57.26-3.89.09-1.24.17-2.49.26-3.77.08-1.14.16-2.28.24-3.46q.3-3.25.77-5.73c.75-5.02,1-10.04,1.28-15.11.07-1.16.13-2.33.2-3.53.21-3.87.41-7.73.61-11.6.03-.67.07-1.34.1-2.02,1.09-21.18,1.54-42.3,1.43-63.5-.01-2.77-.02-5.53-.03-8.3-.04-11.88-.09-23.76-.24-35.65-.08-6.33-.12-12.67-.11-19,0-3.3-.02-6.59-.09-9.89q-.43-22.25,5.45-28.78c2.47-2.3,5.12-4.23,7.91-6.14q4.89-3.63,7.88-8.81.56-1.58,1.12-3.19c20.05-1.56,40.1-3.06,60.19-4.18,9.67-.54,19.32-1.24,28.96-2.14,6.77-.62,13.53-.99,20.33-1.29,6.07-.28,12.1-.77,18.15-1.33,11.54-1.07,23.09-1.74,34.66-2.36q8.09-.42,16.16-1.19c7.9-.97,15.9-1.2,23.84-1.63,10.56-.58,21.15-2.07,31.71-1.88Z"/>
  <path class="st0" d="M836,930c3.63,3.54,6.99,7.23,10.25,11.12.48.57.96,1.14,1.45,1.72,2.97,3.54,5.9,7.12,8.8,10.72,4.13,5.07,8.5,9.87,12.95,14.67,2.06,2.23,4.07,4.48,6.05,6.77,4.26,4.91,8.68,9.68,13.08,14.46,1.34,1.46,2.67,2.92,4.01,4.38,2.27,2.49,4.54,4.97,6.82,7.44,1.01,1.1,2.02,2.2,3.03,3.3,13.79,15.01,28.3,29.32,42.72,43.72,3.69,3.68,7.37,7.37,11.05,11.06,2.86,2.87,5.73,5.73,8.6,8.6,1.36,1.36,2.72,2.72,4.08,4.08,1.89,1.9,3.79,3.79,5.69,5.68.55.55,1.1,1.1,1.66,1.67,3.3,3.28,6.71,6.3,10.36,9.2,2.46,2.51,2.26,5.05,2.26,8.43.02,1.32.04,2.63.05,3.99-.01,1.38-.03,2.75-.05,4.13,0,1.38.01,2.77.02,4.15.02,2.54.02,5.07,0,7.61q-.03,3,.69,5.39c.13.57.27,1.14.4,1.73q-1.48,2.38-3.75,5c-.83.97-1.66,1.94-2.52,2.94-3.17,3.57-6.4,7.08-9.65,10.58-2.99,3.23-5.83,6.55-8.59,9.98-3.63,4.52-7.47,8.78-11.41,13.02-2.99,3.23-5.82,6.55-8.59,9.98-3.63,4.52-7.47,8.78-11.41,13.02-2.99,3.23-5.82,6.55-8.59,9.98-3.63,4.52-7.47,8.78-11.41,13.02-2.99,3.23-5.82,6.55-8.59,9.98-3.2,3.98-6.53,7.77-10,11.5-4.29,4.61-8.3,9.38-12.25,14.29-3.13,3.78-6.46,7.36-9.78,10.97-2.39,2.66-4.66,5.39-6.9,8.18-3.65,4.53-7.5,8.81-11.46,13.07-3.87,4.19-7.48,8.55-11.03,13.02-2.23,2.66-4.52,5.12-7.07,7.47h-2c-1.37-1.53-2.67-3.13-3.94-4.75-3.38-4.24-6.86-8.29-10.56-12.25-4.27-4.59-8.26-9.33-12.19-14.22-2.51-3.02-5.14-5.91-7.81-8.78-4.27-4.59-8.26-9.33-12.19-14.22-2.51-3.02-5.14-5.91-7.81-8.78-4.27-4.59-8.26-9.33-12.19-14.22-2.51-3.02-5.14-5.91-7.81-8.78-4.29-4.61-8.3-9.38-12.25-14.29-2.33-2.82-4.77-5.52-7.25-8.21-3.27-3.56-6.41-7.17-9.44-10.94-3.66-4.54-7.51-8.82-11.48-13.08-3.78-4.09-7.28-8.36-10.77-12.7-2.95-3.55-6.07-6.91-9.21-10.28-3.91-4.22-7.55-8.62-11.13-13.12q-1.9-2.43-4.29-4.31c-.56-.68-1.11-1.36-1.68-2.06.3-2,.64-4,1-6-.04-2.11-.14-4.22-.29-6.32q-1.05-20.62,2.45-25.71c2.8-2.74,5.57-4.8,8.84-6.96,7.61-6.08,14.35-13.21,21.22-20.09,1.27-1.27,2.54-2.54,3.82-3.81,2.65-2.65,5.31-5.31,7.96-7.97,3.38-3.39,6.77-6.77,10.15-10.15,2.62-2.62,5.25-5.24,7.87-7.87,1.25-1.25,2.49-2.49,3.74-3.74q8.71-8.69,16.93-17.85c1.82-2.13,3.8-4.08,5.81-6.03,3.3-3.26,6.4-6.61,9.42-10.14,2.8-3.18,5.69-6.27,8.58-9.36,4.59-4.93,9.12-9.88,13.5-15,.9-1.05,1.8-2.09,2.7-3.14,9.9-11.51,19.73-23.07,29.3-34.86Z"/>
  <path class="st0" d="M836,57c8.41,8.32,16.32,17.03,23.72,26.25,2.5,3.01,5.11,5.89,7.78,8.75,4.27,4.59,8.26,9.33,12.19,14.22,2.51,3.02,5.14,5.91,7.81,8.78,4.27,4.59,8.26,9.33,12.19,14.22,2.51,3.02,5.14,5.91,7.81,8.78,4.27,4.59,8.26,9.33,12.19,14.22,2.51,3.02,5.14,5.91,7.81,8.78,4.27,4.59,8.26,9.33,12.19,14.22,2.51,3.02,5.14,5.91,7.81,8.78,4.27,4.59,8.26,9.33,12.19,14.22,2.51,3.02,5.14,5.91,7.81,8.78,4.32,4.64,8.39,9.43,12.35,14.39,2.78,3.37,5.77,6.51,8.82,9.64q.66.98,1.34,1.97-.21.85-.43,1.72c-.74,2.98-.5,5.6-.32,8.67q.72,21.96-4.59,28.9c-3.19,3.4-6.68,6.32-10.44,9.06-7.82,5.82-14.6,12.88-21.47,19.77-1.07,1.07-2.14,2.14-3.21,3.21-2.23,2.23-4.46,4.46-6.69,6.69-2.84,2.84-5.68,5.68-8.52,8.52-2.21,2.2-4.41,4.41-6.62,6.62-1.05,1.05-2.09,2.09-3.14,3.14-5.23,5.22-10.38,10.46-15.17,16.09-2.01,2.33-4.19,4.47-6.4,6.62-3.46,3.42-6.73,6.91-9.89,10.61-2.96,3.37-6.04,6.62-9.11,9.89-4.77,5.09-9.48,10.2-14,15.5-.89,1.03-1.77,2.07-2.66,3.1-2.05,2.39-4.1,4.78-6.15,7.18-2.11,2.47-4.23,4.93-6.35,7.39-1.03,1.2-2.06,2.39-3.09,3.59-.5.58-1,1.15-1.51,1.75-3.7,4.31-7.21,8.75-10.62,13.31-.53.56-1.07,1.12-1.62,1.7h-3c-1.96-2.01-3.73-4.02-5.5-6.19-.53-.63-1.06-1.26-1.6-1.91-1.1-1.31-2.2-2.63-3.29-3.95-2.41-2.92-4.85-5.81-7.3-8.7-.45-.54-.9-1.07-1.37-1.62-3.55-4.2-7.2-8.3-10.9-12.37-1.87-2.07-3.72-4.16-5.55-6.26-7.68-8.81-15.58-17.42-23.5-26-.55-.6-1.11-1.2-1.68-1.82-6.77-7.32-13.58-14.56-20.72-21.52-2.01-2.06-3.89-4.13-5.76-6.31-3.8-4.36-7.81-8.46-11.9-12.54q-1.12-1.12-2.27-2.27c-1.57-1.57-3.14-3.14-4.72-4.71-2.39-2.38-4.77-4.77-7.16-7.16-1.54-1.54-3.07-3.07-4.61-4.61-.7-.7-1.4-1.41-2.13-2.13-3.98-3.96-8.07-7.73-12.32-11.4-2-1.74-3.88-3.56-5.74-5.45-.64-.65-1.28-1.3-1.95-1.97-.64-.65-1.28-1.3-1.94-1.98-1.31-1.33-2.62-2.66-3.93-3.99-.57-.58-1.13-1.16-1.72-1.75q-1.45-1.48-3.48-2.38c0-.85.01-1.7.02-2.58.02-3.18.03-6.36.04-9.53,0-1.37.01-2.74.02-4.12.01-1.98.02-3.96.02-5.94,0-1.19.01-2.38.02-3.6q0-3.17-.76-5.96-.36-2.27,1.86-5.47c1.04-1.18,2.1-2.34,3.16-3.49.55-.62,1.1-1.23,1.67-1.87,1.64-1.83,3.29-3.64,4.95-5.44,1.56-1.73,3.13-3.46,4.69-5.19q1.08-1.19,2.18-2.39c2.25-2.54,4.38-5.15,6.51-7.79,3.68-4.55,7.55-8.86,11.54-13.14,2.99-3.23,5.82-6.55,8.59-9.98,3.63-4.52,7.47-8.78,11.41-13.02,2.99-3.23,5.82-6.55,8.59-9.98,3.63-4.52,7.47-8.78,11.41-13.02,2.99-3.23,5.82-6.55,8.59-9.98,3.63-4.52,7.47-8.78,11.41-13.02,2.99-3.23,5.82-6.55,8.59-9.98,3.63-4.52,7.47-8.78,11.41-13.02,2.99-3.23,5.82-6.55,8.59-9.98,3.63-4.51,7.45-8.77,11.4-13,3.94-4.26,7.61-8.69,11.23-13.22,1.55-1.88,3.12-3.6,4.88-5.28Z"/>
  <path class="st0" d="M658,857c.08,6.87-.14,13.55-.88,20.38-1.27,12.94-1.95,25.9-2.59,38.89-.26,5.26-.52,10.52-.82,15.78-1.27,22.78-1.85,45.44-1.5,68.25.03,2.31.06,4.62.09,6.93.12,9.39.25,18.79.48,28.18.14,5.87.22,11.74.27,17.61.03,2.2.08,4.4.15,6.6q.57,17.8-3.81,23.07c-2.85,2.84-6.08,5.04-9.4,7.31-1.42,1.44-2.81,2.91-4.12,4.44-.52.6-1.04,1.19-1.57,1.81q-1.4,1.7-2.01,3.8-1.29,1.95-3.92,2.65c-1.11.09-2.23.18-3.38.28-1.26.11-2.53.22-3.83.34-1.39.1-2.78.21-4.17.31-1.43.12-2.85.24-4.28.36-12.14,1-24.3,1.73-36.46,2.37q-7.88.39-15.72,1.14c-6.12.75-12.28.99-18.43,1.32-10.55.58-21.09,1.19-31.61,2.18-11.25,1.06-22.51,1.69-33.79,2.3q-8.09.42-16.15,1.19c-7.9.97-15.9,1.2-23.84,1.63-2.24.12-4.47.25-6.71.38q-1.08.06-2.18.12c-3.48.2-6.92.47-10.38.94-6.75.86-13.65.51-20.44.44q1.82-38.61,3.25-53.38c.97-10.29,1.5-20.6,2.06-30.91.34-6.11.71-12.19,1.45-18.27.55-5.43.77-10.88,1.06-16.33.62-11.43,1.36-22.83,2.43-34.23.95-10.37,1.49-20.77,2.06-31.17.34-6.24.72-12.44,1.48-18.65.43-4.01.55-8.04.72-12.06.14-3.34.3-6.67.5-10,.05-.85.09-1.69.14-2.57.06-.81.12-1.62.19-2.45.05-.72.1-1.45.15-2.2.17-.59.35-1.18.52-1.79q3.31-1.75,5.47-2.58c5.33-3,9.14-8.26,13.1-12.84q.71-.78,1.43-1.58c.59-.68,1.17-1.36,1.78-2.07,2.66-2.31,3.78-2.44,7.25-2.45,1.01-.01,2.03-.02,3.07-.04,1.11,0,2.21.01,3.36.02,1.17,0,2.34-.02,3.55-.03,3.22-.02,6.44-.02,9.66-.02,3.4,0,6.8-.02,10.2-.04,6.47-.04,12.94-.05,19.41-.06,9.38-.01,18.75-.05,28.13-.09.7,0,1.4,0,2.12,0,1.4,0,2.8-.01,4.2-.02,4.64-.02,9.29-.03,13.93-.04,12.78-.03,25.55-.2,38.33-.61,1.19-.04,2.39-.08,3.61-.12,13.06-.47,26.08-1.47,39.1-2.49,3.61-.28,7.22-.56,10.83-.84,2.21-.17,4.42-.34,6.62-.52,6.63-.51,13.21-.68,19.86-.58Z"/>
  <path class="st0" d="M397,239c6.73-.11,13.3.21,20,.88,11.75,1.1,23.51,1.79,35.29,2.43,6.11.34,12.2.71,18.28,1.45,5.43.55,10.89.77,16.33,1.06,11.77.64,23.51,1.41,35.25,2.5,6.76.62,13.52.99,20.3,1.29,6.37.29,12.71.81,19.06,1.39,6.85.63,13.69,1.15,20.56,1.44,2.52.12,5.04.26,7.56.39,2.63.13,5.26.26,7.89.38,4.29.2,8.58.44,12.87.71,1.74.1,3.48.19,5.22.26,2.47.11,4.93.26,7.4.43.75.02,1.49.04,2.26.06q2.11.17,5.74,1.34c1.4,1.93,2.28,3.78,3.13,6.01,1.46,3.34,4.07,5.37,6.81,7.68,2.03,1.77,4.04,3.54,6.06,5.31.88.69,1.75,1.38,2.65,2.09,3.28,4.07,3,7.06,2.87,12.13,0,.93,0,1.85-.01,2.81-.02,3.09-.07,6.17-.13,9.26-.02,2.19-.03,4.37-.05,6.56-.03,4.65-.08,9.31-.13,13.96-.14,12.12-.18,24.23-.22,36.35,0,1.2,0,2.41-.01,3.65-.07,21.14.37,42.21,1.4,63.33.06,1.35.13,2.7.19,4.05.75,15.51,1.84,30.98,3.22,46.45.29,3.23.56,6.46.84,9.69q.11,1.29.23,2.61c.23,4.69.18,9.38.15,14.07-5.94-.41-11.88-.82-17.82-1.23-2.02-.14-4.03-.28-6.05-.42-2.91-.2-5.83-.4-8.74-.6-.89-.06-1.78-.12-2.69-.18-4.3-.3-8.59-.65-12.88-1.1-4.04-.42-8.05-.65-12.11-.75-1.31-.04-2.62-.07-3.96-.11-1.35-.04-2.7-.07-4.05-.11-2.66-.07-5.33-.14-7.99-.22-1.17-.03-2.33-.06-3.54-.09-3.39-.12-6.75-.41-10.13-.7-6.6-.51-13.13-.55-19.75-.44-2.48.03-4.96.06-7.43.1-1.29.02-2.59.04-3.92.05-7.65.1-15.3.12-22.94.15-8.06.03-16.11.09-24.17.23-6.44.11-12.87.17-19.31.15-3.39,0-6.78.02-10.17.11q-22.19.53-29.29-5.42c-3.29-3.27-6.11-6.78-8.67-10.64-2.09-2.7-4.29-4.45-7.56-5.44q-1.82-1.34-2.58-4.94c-.14-1.63-.26-3.27-.37-4.91-.07-.9-.14-1.79-.22-2.72-.25-3.26-.46-6.52-.66-9.78-.04-.67-.08-1.34-.13-2.03-.41-6.71-.82-13.43-1.18-20.15q-.41-8.15-1.19-16.27c-.97-7.9-1.2-15.89-1.63-23.84q-.58-10.67-1.63-21.3c-.55-5.42-.77-10.87-1.06-16.3-.64-11.77-1.41-23.51-2.5-35.25-.62-6.77-.99-13.53-1.29-20.32-.28-6.22-.81-12.4-1.39-18.6-1.21-12.96-1.63-25.93-2-38.94Z"/>
  <path class="st0" d="M1280,525c4.19,1.44,7.34,4.69,10.62,7.56.62.54,1.24,1.08,1.88,1.63,4.41,3.83,8.75,7.74,13.07,11.67,2.54,2.25,5.15,4.38,7.79,6.51,4.55,3.68,8.86,7.55,13.14,11.54,3.23,2.99,6.55,5.82,9.98,8.59,3.98,3.2,7.77,6.53,11.5,10,4.63,4.31,9.42,8.35,14.35,12.32,2.62,2.16,5.14,4.39,7.65,6.68,3.4,3.1,6.86,6.05,10.44,8.94,4.78,3.86,9.3,7.94,13.82,12.1,2.66,2.39,5.39,4.66,8.18,6.9,4.54,3.66,8.82,7.51,13.08,11.48,3.23,2.99,6.55,5.82,9.98,8.59,4.51,3.63,8.77,7.45,13,11.4,4.2,3.9,8.61,7.5,13.12,11.03,2.48,2.16,4.4,4.45,6.38,7.07-6.91,6.49-13.86,12.79-21.25,18.72-3.01,2.5-5.89,5.11-8.75,7.78-4.59,4.27-9.33,8.26-14.22,12.19-3.02,2.51-5.91,5.14-8.78,7.81-4.59,4.27-9.33,8.26-14.22,12.19-3.02,2.51-5.91,5.14-8.78,7.81-4.59,4.27-9.33,8.26-14.22,12.19-3.02,2.51-5.91,5.14-8.78,7.81-4.59,4.27-9.33,8.26-14.22,12.19-3.02,2.51-5.91,5.14-8.78,7.81-4.59,4.27-9.33,8.26-14.22,12.19-3.02,2.51-5.91,5.14-8.78,7.81-4.58,4.26-9.31,8.24-14.19,12.16-3.73,3.11-7.26,6.42-10.75,9.8q-4.54,4.3-8.06,4.54c-.99-.33-1.98-.66-3-1-2.06,0-4.12.06-6.18.14q-22.76.47-29.16-5.47c-1.92-2.17-3.67-4.38-5.3-6.77-5.79-8.13-13.31-15-20.35-22.04-1.16-1.16-2.32-2.32-3.48-3.48-2.42-2.42-4.84-4.84-7.26-7.25-3.08-3.08-6.16-6.16-9.24-9.25-2.39-2.39-4.78-4.78-7.17-7.17-1.14-1.14-2.27-2.27-3.4-3.41-5.48-5.48-10.95-10.92-16.86-15.95-2.32-2-4.45-4.17-6.59-6.37-3.42-3.46-6.91-6.73-10.61-9.89-3.37-2.96-6.62-6.04-9.89-9.11-5.09-4.77-10.2-9.47-15.5-14-1.04-.9-2.09-1.8-3.13-2.7-11.51-9.9-23.08-19.73-34.87-29.3,3.87-3.97,7.93-7.63,12.12-11.25.66-.57,1.33-1.15,2.01-1.74,3.78-3.26,7.6-6.45,11.49-9.57,5.35-4.33,10.36-8.97,15.38-13.66,2.31-2.16,4.66-4.27,7.05-6.34,5.42-4.69,10.67-9.58,15.94-14.44.53-.49,1.06-.97,1.6-1.47,2.16-1.99,4.32-3.98,6.48-5.98,2.69-2.49,5.39-4.98,8.11-7.44,6.71-6.12,13.19-12.43,19.58-18.88,3.6-3.62,7.26-7.06,11.15-10.36,2.99-2.66,5.82-5.48,8.65-8.3q.8-.79,1.61-1.59c2.8-2.81,5.46-5.67,8.04-8.68,4.69-5.41,9.82-10.39,14.92-15.41,1.47-1.45,2.94-2.9,4.4-4.35,1.38-1.37,2.78-2.73,4.17-4.1,1.9-2,3.15-3.72,4.53-6.05,4.94-4.23,11.71-3.22,17.96-3.18,2.09-.01,4.17-.04,6.26-.06,1.88-.02,3.77-.02,5.65-.02q2.84.09,4.9-1.11Z"/>
  <path class="st0" d="M391,525c.86.34,1.72.68,2.61,1.02,3.58,1.03,5.89,1,9.57.61,1.18-.08,2.35-.16,3.56-.24,2.43-.18,4.86-.41,7.27-.7,4.76-.24,8.89-.33,12.74,2.69,1.84,1.86,3.56,3.79,5.27,5.77,1.32,1.47,2.64,2.94,3.97,4.4.67.75,1.33,1.49,2.02,2.26,3.02,3.32,6.17,6.5,9.35,9.68q.92.92,1.86,1.86c1.91,1.92,3.83,3.83,5.75,5.75,1.37,1.37,2.74,2.75,4.12,4.12,2.84,2.84,5.68,5.68,8.53,8.52,3.63,3.62,7.25,7.25,10.87,10.87,2.82,2.82,5.64,5.64,8.46,8.46,1.34,1.34,2.67,2.67,4.01,4.01q8.98,9.03,18.44,17.55c3.05,2.6,5.94,5.37,8.86,8.12,1.31,1.23,2.62,2.45,3.93,3.68.64.6,1.29,1.2,1.95,1.82,10.49,9.79,21.25,19.24,32.15,28.56,2.47,2.11,4.93,4.23,7.39,6.35,1.2,1.03,2.39,2.06,3.59,3.09.58.5,1.15,1,1.75,1.51,4.31,3.7,8.75,7.21,13.31,10.62.56.53,1.12,1.07,1.7,1.62v3c-1.89,1.84-3.76,3.48-5.81,5.12-.59.49-1.18.97-1.79,1.48-1.79,1.48-3.59,2.94-5.4,4.4-6.65,5.39-13.14,10.86-19.45,16.66-2.18,2-4.38,3.96-6.62,5.9-3.84,3.34-7.62,6.73-11.39,10.14-1.61,1.45-3.22,2.9-4.84,4.34-10.2,9.1-20.28,18.38-29.86,28.14-1.73,1.7-3.51,3.27-5.36,4.84-5.49,4.78-10.6,9.95-15.74,15.1-1.07,1.07-2.14,2.14-3.21,3.21-2.23,2.23-4.46,4.46-6.69,6.69-2.84,2.84-5.68,5.68-8.52,8.52-2.21,2.2-4.41,4.41-6.62,6.62-1.05,1.05-2.09,2.09-3.14,3.14-6.47,6.46-12.93,12.91-18.47,20.2-2.87,3.51-4.98,5.27-9.48,6.21-3.97.27-7.9.31-11.87.23-1.38,0-2.75,0-4.12,0-2.51.01-5.03,0-7.54-.03q-2.97-.05-5.32.71-.87.18-1.77.37c-2.3-1.63-4.25-3.23-6.31-5.12-1.25-1.11-2.5-2.23-3.75-3.34-.65-.58-1.29-1.16-1.96-1.77-2.57-2.31-5.19-4.56-7.81-6.81-4.86-4.18-9.68-8.4-14.42-12.71-3.29-2.99-6.66-5.83-10.12-8.62-4.55-3.68-8.86-7.55-13.14-11.54-3.23-2.99-6.55-5.82-9.98-8.59-4.52-3.63-8.78-7.47-13.02-11.41-3.23-2.99-6.55-5.82-9.98-8.59-4.52-3.63-8.78-7.47-13.02-11.41-3.23-2.99-6.55-5.82-9.98-8.59-4.52-3.63-8.78-7.47-13.02-11.41-3.23-2.99-6.55-5.82-9.98-8.59-3.98-3.2-7.77-6.53-11.5-10-4.6-4.28-9.35-8.28-14.24-12.22-4.74-3.92-9.24-8.1-13.76-12.28,3.73-5.01,8.1-8.62,12.97-12.51,3.12-2.56,6.08-5.24,9.03-7.99,4.59-4.27,9.33-8.26,14.22-12.19,3.02-2.51,5.91-5.14,8.78-7.81,4.59-4.27,9.33-8.26,14.22-12.19,3.02-2.51,5.91-5.14,8.78-7.81,4.55-4.23,9.25-8.22,14.08-12.12,7.54-6.15,14.91-12.52,22.11-19.07,3.31-3.01,6.7-5.88,10.19-8.69,4.55-3.68,8.86-7.55,13.14-11.54,4.09-3.78,8.36-7.28,12.7-10.77,3.02-2.51,5.91-5.14,8.78-7.81,4.62-4.3,9.39-8.33,14.31-12.29,4.36-3.59,8.53-7.4,12.69-11.21Z"/>
  <path class="st0" d="M899,831c4.49,1.48,8.97,2.98,13.42,4.58,22.54,7.98,46,12.73,69.58,16.42,5.78,17.33,4.52,39.67,5.62,57.81.06,1.01.12,2.02.19,3.07.37,6.05.71,12.11,1.03,18.16.1,1.9.2,3.8.31,5.7,1.21,21.72.96,43.48.91,65.23-.01,5.2-.01,10.41-.02,15.61-.01,10.14-.03,20.28-.05,30.42-3.43-1.48-5.66-3.41-8.29-6.05-.84-.83-1.68-1.67-2.54-2.53-.9-.91-1.8-1.81-2.72-2.74-.93-.93-1.86-1.87-2.82-2.83-1.97-1.98-3.95-3.95-5.91-5.94-2.5-2.52-5.01-5.03-7.52-7.54-1.95-1.95-3.89-3.9-5.83-5.85-1.37-1.37-2.74-2.74-4.11-4.11-4.4-4.43-8.67-8.91-12.72-13.67-2.68-3.07-5.61-5.89-8.52-8.74-4.27-4.17-8.32-8.45-12.22-12.96-3-3.43-6.15-6.73-9.28-10.04-6.94-7.33-13.57-14.89-20.12-22.56-3.2-3.74-6.41-7.48-9.65-11.18-3.27-3.73-6.51-7.48-9.72-11.25-.55-.64-1.09-1.28-1.66-1.94-1.59-1.88-3.16-3.78-4.72-5.68-.48-.57-.97-1.14-1.46-1.72-1.88-2.34-3.12-4.02-3.31-7.05,1.75-3.95,4.29-7.18,6.9-10.6,9.91-13.39,18.55-27.46,26.31-42.19.44-.84.88-1.67,1.34-2.53,2.9-5.63,5.35-11.36,7.6-17.28Z"/>
  <path class="st1" d="M1206,525c-1.53,3.6-3.66,5.91-6.41,8.66-.92.92-1.83,1.84-2.77,2.78-1,1-2.01,1.99-3.01,2.99-1.03,1.03-2.06,2.06-3.1,3.09-2.16,2.16-4.33,4.32-6.5,6.48-2.76,2.75-5.52,5.5-8.27,8.25-2.13,2.13-4.27,4.26-6.4,6.39-1.02,1.01-2.03,2.03-3.04,3.04-5.14,5.13-10.29,10.17-15.82,14.87-2.7,2.34-5.18,4.89-7.67,7.45-3.86,3.9-7.76,7.66-11.94,11.23-2.56,2.21-5.06,4.49-7.56,6.77-3.79,3.46-7.61,6.87-11.48,10.23-2.3,2.02-4.56,4.08-6.83,6.14-4.27,3.85-8.67,7.49-13.13,11.11-3.6,2.97-7.11,6.02-10.62,9.08-1.9,1.64-3.79,3.28-5.69,4.92-1.11.96-2.21,1.92-3.31,2.89-1.34,1.18-2.7,2.34-4.06,3.5-.73.64-1.47,1.27-2.23,1.93q-2.15,1.2-4.51,1.19c-3.56-1.34-6.3-3.49-9.27-5.81-19.31-14.6-40.82-27.31-63.38-36.19q2.77-8.33,3.9-11.64c7.27-21.29,12.15-42.9,15.56-65.12q.54-3.25,1.54-6.25c22.58-3.14,45.25-4.65,68-6,.89-.05,1.78-.11,2.7-.16,41.73-2.53,83.51-2.04,125.3-1.84Z"/>
  <path class="st0" d="M774,831q.58,1.4,1.18,2.83c9.6,22.71,22.02,44.53,37.25,63.99q3.63,4.7,3.34,7.21c-1.24,3.17-3.54,5.51-5.77,8.03-1.01,1.17-2.03,2.34-3.04,3.51-.5.58-1.01,1.16-1.53,1.76-1.98,2.31-3.9,4.67-5.81,7.04-8.16,10.01-16.71,19.7-25.44,29.22-1.88,2.07-3.73,4.16-5.56,6.28-4.54,5.22-9.26,10.27-13.97,15.34-1.66,1.79-3.32,3.6-4.98,5.4-6.86,7.43-13.86,14.68-21.08,21.76-3.1,3.05-6.08,6.14-8.91,9.44-4.45,5.16-9.29,9.94-14.12,14.75q-1.35,1.36-2.74,2.75c-6.31,6.3-12.67,12.36-19.83,17.69-.05-11.43-.08-22.87-.1-34.3-.01-5.31-.02-10.63-.05-15.94-.15-35.27.82-70.31,3.9-105.45.26-2.96.5-5.91.75-8.87.89-10.52,1.96-20.98,3.5-31.43,1.11-.21,2.22-.41,3.37-.62q38.29-6.86,75.04-19.31,2.6-1.07,4.6-1.07Z"/>
  <path class="st0" d="M1062.98,698.94c3.05,1.6,5.52,3.79,8.09,6.06,1.17,1.01,2.34,2.03,3.51,3.04.58.5,1.16,1.01,1.76,1.53,2.31,1.98,4.67,3.9,7.04,5.81,10.3,8.4,20.24,17.2,30,26.21,2.16,1.98,4.34,3.93,6.56,5.85,5.19,4.51,10.22,9.2,15.25,13.88,1.82,1.69,3.64,3.37,5.47,5.05,8.88,8.22,17.49,16.69,25.99,25.31,4.4,4.45,8.84,8.75,13.61,12.81,5.04,4.37,9.43,9.27,13.77,14.32,3.19,3.55,6.62,6.86,10.04,10.19q1.94,2,1.94,3c-11.16.05-22.31.08-33.47.1-5.19.01-10.37.02-15.56.05-49.1.21-98.26-1.67-146.97-8.15q-.18-.98-.36-1.97c-4.52-24.4-9.59-48.17-17.82-71.62-1.06-3.11-1.96-6.24-2.82-9.41.96-.4,1.92-.8,2.9-1.21,23.82-10.1,46.06-23.41,66.52-39.26q2.57-1.53,4.55-1.59Z"/>
  <path class="st0" d="M683,309c6.43,5.3,12.28,11.13,18.16,17.02,1.07,1.07,2.14,2.14,3.22,3.21,2.24,2.24,4.47,4.47,6.71,6.71,2.84,2.85,5.69,5.7,8.54,8.54,2.21,2.21,4.42,4.42,6.63,6.63,1.05,1.05,2.1,2.1,3.15,3.15,5.25,5.24,10.42,10.5,15.23,16.14,1.85,2.15,3.84,4.12,5.87,6.09,3.28,3.24,6.35,6.57,9.36,10.07,2.98,3.38,6.06,6.65,9.14,9.93,4.77,5.09,9.47,10.2,14,15.5.9,1.04,1.8,2.09,2.7,3.13,2.59,3.02,5.18,6.04,7.76,9.06,1.47,1.72,2.94,3.43,4.41,5.14,2.74,3.2,5.45,6.42,8.13,9.66.48.58.97,1.17,1.47,1.77,1.44,1.75,2.87,3.52,4.28,5.3.44.54.89,1.07,1.34,1.63q1.2,1.53,2.91,4.31c-.38,3.13-1.6,5.11-3.48,7.59-.52.69-1.03,1.38-1.56,2.09q-.84,1.12-1.7,2.26c-13.68,18.6-28.28,39.91-35.25,62.06-4.16-.67-7.73-2.04-11.62-3.62-22.91-8.82-47.24-12.56-71.38-16.38-1.72-8.25-2.53-16.41-3.06-24.81-.15-2.36-.31-4.72-.47-7.08-.07-1.03-.13-2.06-.2-3.12q-.22-2.95-.75-5.68c-1.5-9.54-1.58-19.36-2.08-28.99-.07-1.31-.14-2.61-.21-3.96-2.1-41.08-1.5-82.24-1.23-123.35Z"/>
  <path class="st0" d="M990,309q.79,132.36-8,197c-1.17.14-2.34.27-3.54.41-24.74,3.08-48.46,9.37-71.89,17.76-2.51.81-4.97,1.37-7.57,1.83-.44-1.06-.88-2.11-1.33-3.2-9.94-23.43-23.46-45.87-39.51-65.64q-1.16-2.16-1.2-4.52c1.46-3.71,3.9-6.35,6.54-9.26,1.11-1.25,2.21-2.51,3.32-3.76.55-.62,1.09-1.23,1.65-1.86,2.05-2.35,4.01-4.76,5.97-7.19,7.95-9.78,16.27-19.25,24.83-28.5,2.39-2.59,4.75-5.2,7.05-7.87,4.98-5.74,10.23-11.24,15.44-16.78,1.65-1.76,3.28-3.54,4.91-5.32,11.03-12.01,22.59-23.49,34.13-35.01,2.97-2.97,5.94-5.94,8.9-8.91,2.3-2.3,4.6-4.6,6.89-6.89,1.1-1.1,2.19-2.19,3.29-3.29,1.51-1.52,3.03-3.03,4.55-4.54q1.29-1.29,2.61-2.61,1.96-1.84,2.96-1.84Z"/>
  <path class="st0" d="M611.21,698.96c4.18,1.55,7.39,4.16,10.92,6.85,19.09,14.13,39.48,27.06,61.88,35.19-1.52,4.6-3.06,9.19-4.65,13.77-7.81,22.69-12.25,45.64-16.35,69.23-7.1,1.4-14.12,2.42-21.33,3-.97.08-1.93.16-2.93.24-3.18.26-6.37.51-9.55.76-1.12.09-2.24.17-3.39.26-52.91,4.03-105.77,4-158.79,3.74,5.61-6.84,11.86-13.01,18.12-19.25,1.18-1.18,2.37-2.37,3.55-3.55,2.47-2.47,4.94-4.94,7.42-7.41,3.15-3.15,6.3-6.3,9.45-9.45,2.44-2.44,4.88-4.88,7.33-7.33,1.16-1.16,2.32-2.32,3.48-3.48,5.56-5.57,11.12-11.11,17.13-16.21,1.95-1.67,3.75-3.47,5.53-5.31,3.11-3.15,6.32-6.08,9.68-8.96,2.36-2.07,4.66-4.2,6.96-6.35,5.39-5.03,10.88-9.81,16.63-14.42,2.95-2.45,5.75-5.03,8.55-7.64,4.87-4.55,9.95-8.7,15.24-12.75,3.97-3.05,7.67-6.26,11.2-9.82q1.75-1.05,3.95-1.08Z"/>
  <path class="st1" d="M467,525c40.72-.27,81.31.19,122,2,1.76.08,3.51.15,5.27.23,23.01,1.01,45.85,3.24,68.73,5.77.16.91.32,1.82.49,2.76,4.16,23.48,8.79,45.92,16.58,68.52,1.34,3.9,2.64,7.81,3.93,11.72q-.93.35-1.89.71c-17.09,6.75-32.95,15.98-48.11,26.29-.73.49-1.45.98-2.2,1.49-3.48,2.35-6.95,4.72-10.41,7.1-.58.4-1.17.81-1.77,1.22q-1.85,1.31-4.26,3.57-2.36,1.62-4.76,1.71c-3.65-1.54-6.33-3.96-9.23-6.59-1.25-1.11-2.51-2.21-3.76-3.32-.62-.55-1.23-1.09-1.86-1.65-2.35-2.05-4.76-4.01-7.19-5.97-9.19-7.47-18.13-15.26-26.81-23.31-3.73-3.46-7.53-6.75-11.5-9.94-4.06-3.27-7.75-6.7-11.38-10.44-1.77-1.77-3.59-3.39-5.5-5-4.62-3.96-8.85-8.29-13.1-12.64-2.87-2.92-5.79-5.71-8.9-8.37-4.84-4.21-9.37-8.7-13.9-13.23-.88-.87-1.75-1.75-2.66-2.65-1.84-1.83-3.67-3.66-5.51-5.5-1.88-1.88-3.77-3.76-5.66-5.64-2.73-2.71-5.46-5.43-8.18-8.16q-1.27-1.26-2.58-2.55c-.78-.78-1.55-1.56-2.35-2.36-.69-.69-1.37-1.37-2.08-2.08q-1.46-1.71-1.46-3.71Z"/>
  <path class="st0" d="M808,612c.78.14,1.55.28,2.36.43,8.23,1.4,16.18,1.89,24.52,1.82,1.22,0,2.44,0,3.69-.01,8.62-.08,16.96-.62,25.43-2.24.59.8,1.19,1.6,1.8,2.42,10.5,13.98,21.58,25.83,36.2,35.58.25,3.26.18,6.15-.51,9.35-.97,5.23-.63,10.59-.62,15.9,0,1.26-.01,2.51-.02,3.81,0,5.47.01,10.81.83,16.22.61,4.05,1.03,7.64.32,11.73-3.27,3.88-6.93,6.28-11.24,8.88-8.77,5.57-15.2,13.83-21.35,22.02q-4.24,5.45-6.41,7.1-2.47-.05-5.5-.75c-7.54-1.33-14.91-1.49-22.56-1.5-1.17,0-2.34-.02-3.55-.03-7.96.02-15.56.85-23.39,2.28-.44-.66-.89-1.33-1.35-2.01-4.38-6.51-9.26-12.29-14.65-17.99q-1.05-1.13-2.12-2.28c-3.27-3.41-6.34-6.47-10.41-8.91-3.74-2.3-6.64-4.4-9.47-7.81-.46-4.29.22-7.77,1.09-11.96,1.21-5.9,1.2-11.72,1.16-17.73,0-1.07,0-2.14-.01-3.25-.09-7.83-.7-15.37-2.24-23.07.51-.31,1.02-.61,1.55-.93,7.25-4.56,13.29-10.2,19.45-16.07.73-.67,1.47-1.34,2.23-2.03,5.95-5.6,10.3-12.18,14.77-18.97Z"/>
  <path class="st2" d="M917.09,735.1c2.08.98,3.39,2.05,5.04,3.65,10.6,9.44,22.25,10.59,35.88,10.25,8.19,16.93,13.06,34.77,16.94,53.12.21,1,.42,2,.64,3.03.94,4.68,1.69,9.04,1.42,13.84-6.03.29-11.34-.78-17.19-2.19-.96-.23-1.93-.46-2.92-.69-2-.47-3.99-.95-5.98-1.43-2.69-.64-5.39-1.25-8.09-1.86-8.91-2.04-17.47-4.59-26-7.9-.87-.33-1.74-.66-2.63-1-.8-.32-1.59-.65-2.41-.98-.71-.28-1.41-.56-2.14-.86q-1.63-1.11-2.37-3.11c-.27-2.06-.26-3.92-.14-6,.05-10.91-3.93-20.15-10.12-29q-1.13-1.04-2.29-2.09-1.71-1.91-1.77-3.8c1.52-3.03,3.68-5.35,6-7.79q.73-.78,1.48-1.58,13.1-13.8,16.67-13.63Z"/>
  <path class="st1" d="M755,735c4.44,1.43,7.46,3.85,10.81,7q.78.72,1.58,1.46c4.71,4.45,8.76,9.33,12.61,14.54-1.34,2.89-2.89,5.26-4.88,7.75-6.33,8.32-9.44,16.61-9.25,27.19,0,.68.02,1.37.03,2.07.02,1.66.06,3.33.1,4.99-1.69.77-3.37,1.54-5.06,2.31q-1.41.64-2.85,1.3c-1.02.46-2.04.92-3.09,1.39-1.03.48-2.05.96-3.11,1.45-5.17,2.2-10.6,3.54-16.01,4.98q-1.71.46-3.45.92-27.1,7.11-36.42,6.64c1.02-22.15,6.7-49.74,18-69,3.06-1.02,4.71-.99,7.88-.81,11.42.08,23.13-4.43,31.4-12.38.57-.6,1.14-1.2,1.72-1.81Z"/>
  <path class="st2" d="M836,480c4.61,4.2,7.83,8.95,11.19,14.19.57.88,1.14,1.77,1.72,2.68,7.39,11.61,14.05,23.49,19.78,36.01.35.76.7,1.51,1.07,2.29q2.64,5.97,1.25,9.84-1.38,1.28-3.12,2.5c-9.49,7.75-13.19,19.94-14.56,31.69-.1,1.26-.21,2.52-.31,3.81-6.08,1.07-12.02,1.15-18.19,1.12q-1.48,0-2.98.01c-.95,0-1.9,0-2.87,0-.86,0-1.71,0-2.59,0-2.25-.12-4.2-.5-6.36-1.13q-.16-1.13-.33-2.27c-2.31-14.91-6.15-27.28-18.67-36.73,1.13-6.05,2.76-11.4,5.44-16.94.35-.73.7-1.45,1.05-2.2,7.29-14.83,16.79-33.15,28.51-44.86Z"/>
  <path class="st2" d="M977,538c-.53,8.02-1.76,15.72-3.5,23.56-.26,1.16-.51,2.31-.78,3.5-3.36,14.5-7.59,29.78-14.72,42.93q-1.22-.05-2.46-.11c-12.26-.3-24.83,1.97-34.2,10.64-.42.46-.84.93-1.28,1.4l-2.06,2.06c-4.26-.12-6.91-3.35-9.81-6.12-.53-.5-1.06-1-1.6-1.51-1.05-.99-2.1-1.99-3.15-2.99-1.23-1.17-2.46-2.33-3.71-3.48-.61-.58-1.22-1.17-1.86-1.77-.52-.49-1.04-.98-1.57-1.49-1.76-2.2-2.67-3.87-3.3-6.63q1.38-2.47,3.56-5.06c7.03-8.99,10.62-18.35,10.5-29.75,0-1.16-.02-2.32-.03-3.52-.01-.88-.02-1.76-.04-2.67,20.99-9.38,46.77-19,70-19Z"/>
  <path class="st1" d="M701.18,643.68c1.88,1.36,3.24,2.75,4.76,4.5,9.24,9.52,21.31,12.69,34.06,13.81.8,3.51,1.13,6.75,1.13,10.34,0,1,0,2,0,3.03,0,1.03,0,2.07-.01,3.13,0,1.03,0,2.07.01,3.13,0,1,0,2,0,3.03,0,.91,0,1.81,0,2.74-.13,2.62-.55,5.04-1.13,7.6q-1.61.2-3.26.41c-13.75,1.94-24.52,5.94-33.64,16.96q-2.1,1.62-4.75,1.64c-4.51-1.37-8.66-3.22-12.91-5.27-.92-.44-1.83-.88-2.78-1.33-15.92-7.82-30.6-17.64-44.66-28.42,9.54-9.99,48.4-39.95,63.18-35.32Z"/>
  <path class="st1" d="M827.96,773.87c1.19,0,2.39,0,3.62,0,1.25,0,2.51,0,3.8.01,1.25,0,2.49,0,3.77-.01,1.2,0,2.39,0,3.62,0,1.1,0,2.19,0,3.33,0,2.48.11,4.54.41,6.9,1.13q.15,1.11.3,2.24c2.23,15.11,7.42,26.38,18.7,36.76-5.85,20.31-17.48,39.01-29.56,56.19-.41.58-.81,1.16-1.23,1.76-2,2.76-2.89,3.94-6.21,5.05-11.55-16.82-22.7-33.81-30.88-52.56-.35-.79-.7-1.58-1.07-2.4q-2.27-5.48-1.25-8.15c1.53-2.43,3.41-4.24,5.44-6.27,7.89-8.65,11.16-18.67,12.33-30.18.14-.81.28-1.62.42-2.45,2.73-1.36,4.91-1.13,7.96-1.13Z"/>
  <path class="st1" d="M972,643c17.84,4.12,34.47,15.24,49.56,25.19.76.5,1.52,1,2.31,1.51,4.16,2.79,7.73,5.62,11.13,9.3-12.05,10.28-26.09,18.18-40.06,25.5-.94.49-1.88.98-2.84,1.49q-15.58,8.01-21.09,8.01-1.47-1.54-3.06-3.62c-7.67-9.09-19.4-13.9-31.12-15q-1.89-.19-3.81-.38c-1.49-2.97-1.11-5.66-1.1-8.98q0-1.03,0-2.08c0-2.19.02-4.38.03-6.57,0-1.48,0-2.97.01-4.45.01-3.64.03-7.28.05-10.92.94-.12,1.87-.24,2.84-.36q1.86-.25,3.76-.5c1.23-.16,2.45-.32,3.72-.49,12.14-2.15,21.39-8.83,29.68-17.65Z"/>
  <path class="st1" d="M696,538c23.78,2.47,48.19,9.24,70,19-.02.85-.05,1.69-.07,2.56-.1,6.49-.07,12.29,2.07,18.44.24.78.49,1.55.74,2.36,2.44,6.98,6.41,12.12,11.26,17.64-4.46,9.81-14.22,18.08-23,24-2.85-1.32-5.09-2.81-7.5-4.81-8.06-6.19-17.67-9.22-27.69-9.75q-1.12-.06-2.27-.13c-1.85-.11-3.69-.21-5.54-.31-9.06-20.48-18.88-46.28-18-69Z"/>
</svg>